<svg xmlns="http://www.w3.org/2000/svg" xmlns:xlink="http://www.w3.org/1999/xlink" viewBox="0 0 228 55"><defs><filter id="b" width="104.1%" height="116.1%" x="-1.3%" y="-5%" filterUnits="objectBoundingBox"><feMorphology in="SourceAlpha" operator="dilate" radius="1" result="shadowSpreadOuter1"/><feOffset dx="3" dy="3" in="shadowSpreadOuter1" result="shadowOffsetOuter1"/><feComposite in="shadowOffsetOuter1" in2="SourceAlpha" operator="out" result="shadowOffsetOuter1"/><feColorMatrix in="shadowOffsetOuter1" values="0 0 0 0 0 0 0 0 0 0 0 0 0 0 0 0 0 0 1 0"/></filter><path id="a" d="m31.499 51 18.89-45.172-16.221-3.764-9.308 31.689L18.768 2.2 1.59 5.897 16.852 51h14.647Zm60.64-.41.89-49.348-42.23.411 4.244 48.594 37.096.342ZM65.719 35.6l1.096-20.258 11.635.684-.753 19.232-11.977.342Zm67.485 14.51-2.122-19.369-7.528.48-.48 5.2-10.882 1.849L129.645 15l.068-12.662h-30.73l-2.67 18.342 11.636-1.78V15l9.034-2.122-20.327 23.886-.343 13.346h36.89Zm38.875 0-2.122-19.369-7.528.48-.48 5.2-10.882 1.849L168.52 15l.069-12.662h-30.731l-2.67 18.342 11.636-1.78V15l9.034-2.122-20.327 23.886-.342 13.346h36.89Zm17.521.342 14.99-.342-.206-19.574L223.82 7.539 207.6 1.995l-9.993 17.795-10.54-17.179-14.989 5.955 17.521 21.49v20.396Z"/></defs><g fill="none"><use xlink:href="#a" fill="#000" filter="url(#b)"/><use xlink:href="#a" fill="#FFF" stroke="#000" stroke-width="2"/></g></svg>